<svg version="1.1" viewBox="0.0 0.0 192.43307086614172 192.0" fill="none" stroke="none" stroke-linecap="square" stroke-miterlimit="10" xmlns:xlink="http://www.w3.org/1999/xlink" xmlns="http://www.w3.org/2000/svg"><clipPath id="p.0"><path d="m0 0l192.43307 0l0 192.0l-192.43307 0l0 -192.0z" clip-rule="nonzero"/></clipPath><g clip-path="url(#p.0)"><path fill="#000000" fill-opacity="0.0" d="m0 0l192.43307 0l0 192.0l-192.43307 0z" fill-rule="evenodd"/><path fill="#000000" fill-opacity="0.0" d="m11.131233 28.677082l0.094488144 119.13585" fill-rule="evenodd"/><path stroke="#000000" stroke-width="12.0" stroke-linejoin="round" stroke-linecap="butt" d="m11.131233 28.677082l0.094488144 119.13585" fill-rule="evenodd"/><path fill="#000000" fill-opacity="0.0" d="m52.22966 29.631697l-41.007874 118.18123" fill-rule="evenodd"/><path stroke="#000000" stroke-width="12.0" stroke-linejoin="round" stroke-linecap="butt" d="m52.22966 29.631697l-41.007874 118.18123" fill-rule="evenodd"/><path fill="#000000" fill-opacity="0.0" d="m52.22966 29.631697l41.007874 118.18123" fill-rule="evenodd"/><path stroke="#000000" stroke-width="12.0" stroke-linejoin="round" stroke-linecap="butt" d="m52.22966 29.631697l41.007874 118.18123" fill-rule="evenodd"/><path fill="#000000" fill-opacity="0.0" d="m134.24934 29.631697l-41.007874 118.18123" fill-rule="evenodd"/><path stroke="#000000" stroke-width="12.0" stroke-linejoin="round" stroke-linecap="butt" d="m134.24934 29.631697l-41.007874 118.18123" fill-rule="evenodd"/><path fill="#000000" d="m7.446194 10.626787l0 0c0 -2.1176624 1.671 -3.8343668 3.732283 -3.8343668l0 0c0.9898634 0 1.9391842 0.40397692 2.639123 1.1230602c0.6999397 0.71908283 1.0931606 1.6943693 1.0931606 2.7113066l0 0c0 2.1176624 -1.6709995 3.8343668 -3.7322836 3.8343668l0 0c-2.061283 0 -3.732283 -1.7167044 -3.732283 -3.8343668z" fill-rule="evenodd"/><path stroke="#000000" stroke-width="12.0" stroke-linejoin="round" stroke-linecap="butt" d="m7.446194 10.626787l0 0c0 -2.1176624 1.671 -3.8343668 3.732283 -3.8343668l0 0c0.9898634 0 1.9391842 0.40397692 2.639123 1.1230602c0.6999397 0.71908283 1.0931606 1.6943693 1.0931606 2.7113066l0 0c0 2.1176624 -1.6709995 3.8343668 -3.7322836 3.8343668l0 0c-2.061283 0 -3.732283 -1.7167044 -3.732283 -3.8343668z" fill-rule="evenodd"/><path fill="#666666" d="m0 153.62865l154.4252 0l0 42.015747l-154.4252 0z" fill-rule="evenodd"/><path fill="#ff9900" d="m13.34375 179.09552l3.09375 0l0 -8.4375l-4.34375 0l0 2.375l-2.046875 0l0 -3.828125l14.84375 0l0 3.828125l-2.046875 0l0 -2.375l-4.359375 0l0 8.4375l3.109375 0l0 1.453125l-8.25 0l0 -1.453125zm10.046875 -5.421875l2.15625 0l0 -4.015625l0.359375 0l0 4.359375l-2.515625 0l0 -0.34375zm-4.25 -2.375l3.3125 0l0 0.34375l-2.9375 0l0 6.90625l-0.375 0l0 -7.25zm-8.546875 2.375l2.15625 0l0 -2.375l3.3125 0l0 0.34375l-2.9375 0l0 2.375l-2.53125 0l0 -0.34375zm11.65625 7.515625l0 -1.59375l0.359375 0l0 1.9375l-8.71875 0l0 -0.34375l8.359375 0zm5.7089233 -2.09375l2.46875 0l0 -8.4375l-2.46875 0l0 -1.453125l13.546875 0l0 3.5625l-2.046875 0l0 -2.109375l-6.890625 0l0 3.59375l4.578125 0l0 1.140625l-4.578125 0l0 3.703125l6.890625 0l0 -2.09375l2.046875 0l0 3.546875l-13.546875 0l0 -1.453125zm12.046875 -5.703125l2.15625 0l0 -3.734375l0.375 0l0 4.078125l-2.53125 0l0 -0.34375zm-6.78125 -2.09375l5.859375 0l0 0.34375l-5.5 0l0 2.0625l-0.359375 0l0 -2.40625zm-4.71875 0l1.53125 0l0 0.34375l-1.53125 0l0 -0.34375zm4.71875 4.734375l4.5625 0l0 -1.328125l0.359375 0l0 1.671875l-4.5625 0l0 2.171875l-0.359375 0l0 -2.515625zm8.9375 5.15625l0 -3.6875l0.375 0l0 4.03125l-14.03125 0l0 -0.34375l13.65625 0zm2.0825958 -2.09375l1.96875 0l6.0 -9.890625l1.953125 0l5.890625 9.890625l2.375 0l0 1.453125l-7.015625 0l0 -1.453125l2.203125 0l-1.328125 -2.328125l-6.375 0l-1.296875 2.328125l2.109375 0l0 1.453125l-6.484375 0l0 -1.453125zm11.375 -9.421875l5.28125 8.875l-0.421875 0l-5.28125 -8.875l0.421875 0zm0.015625 5.953125l-2.578125 -4.53125l-2.515625 4.53125l5.09375 0zm-2.40625 -3.484375l0.21875 0.40625l-1.46875 2.53125l-0.453125 0l1.703125 -2.9375zm-2.96875 5.265625l5.953125 0l0.171875 0.34375l-5.84375 0l-0.4375 0.796875l-0.453125 0l0.609375 -1.140625zm12.8125 3.78125l0 -1.59375l0.390625 0l0 1.9375l-7.65625 0l0 -0.34375l7.265625 0zm-11.6875 0l0 -1.59375l0.359375 0l0 1.9375l-7.09375 0l0 -0.34375l6.734375 0zm13.430679 -2.09375l2.46875 0l0 -8.4375l-2.46875 0l0 -1.453125l5.921875 0l4.28125 7.5625l3.96875 -7.5625l5.921875 0l0 1.453125l-2.4375 0l0 8.4375l2.4375 0l0 1.453125l-6.609375 0l0 -1.453125l2.09375 0l0 -8.515625l-4.890625 9.328125l-1.09375 0l-5.0625 -9.03125l0 8.21875l2.078125 0l0 1.453125l-6.609375 0l0 -1.453125zm18.296875 -7.796875l2.453125 0l0 -1.640625l0.359375 0l0 1.984375l-2.453125 0l0 6.90625l-0.359375 0l0 -7.25zm-11.34375 -1.625l0.40625 0l3.171875 5.578125l-0.203125 0.375l-3.375 -5.953125zm-6.40625 1.625l1.53125 0l0 0.34375l-1.53125 0l0 -0.34375zm10.578125 9.25l4.015625 -7.6875l0 0.75l-3.78125 7.28125l-0.9375 0l-0.1875 -0.34375l0.890625 0zm-5.953125 -7.578125l0.359375 0.640625l0 4.9375l-0.359375 0l0 -5.578125zm15.578125 8.21875l0 -1.59375l0.359375 0l0 1.9375l-7.078125 0l0 -0.34375l6.71875 0zm-13.484375 0l0 -1.59375l0.359375 0l0 1.9375l-7.078125 0l0 -0.34375l6.71875 0z" fill-rule="nonzero"/></g></svg>